# xmcd
#
# Track frame offsets: 
#        150
#        18087
#        36650
#
# Disc length: 722 seconds
#
# Revision: 1
# Processed by: cddbd v1.5.2PL0 Copyright (c) Steve Scherf et al.
# Submitted via: ExactAudioCopy v1.1
#
DISCID=1d02d003
DTITLE=Vanessa Carlton - A Thousand Miles (Maxi-CD)
DYEAR=2000
DGENRE=Pop
TTITLE0=A Thousand Miles
TTITLE1=Twilight (Live)
TTITLE2=Wanted (Ripe Mix)
EXTD=TR.
EXTT0=
EXTT1=
EXTT2=
PLAYORDER=
